<svg width="256" height="256" xmlns="http://www.w3.org/2000/svg">
  <rect width="256" height="256" fill="#ffffff"/>
  <text x="128" y="100" text-anchor="middle" font-size="14" font-family="monospace" fill="#000">warsawjs</text>
  <text x="128" y="120" text-anchor="middle" font-size="14" font-family="monospace" fill="#000">.keanuharrell.com</text>
  <rect x="88" y="140" width="80" height="80" fill="none" stroke="#000" stroke-width="2"/>
  <rect x="96" y="148" width="8" height="8" fill="#000"/>
  <rect x="112" y="148" width="8" height="8" fill="#000"/>
  <rect x="128" y="148" width="8" height="8" fill="#000"/>
  <rect x="144" y="148" width="8" height="8" fill="#000"/>
  <rect x="160" y="148" width="8" height="8" fill="#000"/>
  <rect x="96" y="164" width="8" height="8" fill="#000"/>
  <rect x="128" y="164" width="8" height="8" fill="#000"/>
  <rect x="160" y="164" width="8" height="8" fill="#000"/>
  <rect x="96" y="180" width="8" height="8" fill="#000"/>
  <rect x="112" y="180" width="8" height="8" fill="#000"/>
  <rect x="144" y="180" width="8" height="8" fill="#000"/>
  <rect x="160" y="180" width="8" height="8" fill="#000"/>
  <rect x="96" y="196" width="8" height="8" fill="#000"/>
  <rect x="128" y="196" width="8" height="8" fill="#000"/>
  <rect x="160" y="196" width="8" height="8" fill="#000"/>
  <rect x="96" y="212" width="8" height="8" fill="#000"/>
  <rect x="112" y="212" width="8" height="8" fill="#000"/>
  <rect x="128" y="212" width="8" height="8" fill="#000"/>
  <rect x="144" y="212" width="8" height="8" fill="#000"/>
  <rect x="160" y="212" width="8" height="8" fill="#000"/>
</svg>
