<svg width="128" height="128" xmlns="http://www.w3.org/2000/svg">
  <rect width="128" height="128" fill="#ffffff"/>
  <text x="64" y="30" text-anchor="middle" font-size="10" font-family="monospace" fill="#000">github.com/</text>
  <text x="64" y="42" text-anchor="middle" font-size="10" font-family="monospace" fill="#000">keanuharrell</text>
  <rect x="44" y="50" width="40" height="40" fill="none" stroke="#000" stroke-width="1.5"/>
  <rect x="48" y="54" width="4" height="4" fill="#000"/>
  <rect x="56" y="54" width="4" height="4" fill="#000"/>
  <rect x="64" y="54" width="4" height="4" fill="#000"/>
  <rect x="72" y="54" width="4" height="4" fill="#000"/>
  <rect x="80" y="54" width="4" height="4" fill="#000"/>
  <rect x="48" y="62" width="4" height="4" fill="#000"/>
  <rect x="64" y="62" width="4" height="4" fill="#000"/>
  <rect x="80" y="62" width="4" height="4" fill="#000"/>
  <rect x="48" y="70" width="4" height="4" fill="#000"/>
  <rect x="56" y="70" width="4" height="4" fill="#000"/>
  <rect x="72" y="70" width="4" height="4" fill="#000"/>
  <rect x="80" y="70" width="4" height="4" fill="#000"/>
  <rect x="48" y="78" width="4" height="4" fill="#000"/>
  <rect x="64" y="78" width="4" height="4" fill="#000"/>
  <rect x="80" y="78" width="4" height="4" fill="#000"/>
  <rect x="48" y="86" width="4" height="4" fill="#000"/>
  <rect x="56" y="86" width="4" height="4" fill="#000"/>
  <rect x="64" y="86" width="4" height="4" fill="#000"/>
  <rect x="72" y="86" width="4" height="4" fill="#000"/>
  <rect x="80" y="86" width="4" height="4" fill="#000"/>
</svg>
